# xmcd
#
# Track frame offsets:
#	150
#	11685
#	27177
#	41015
#	57115
#	72590
#	82012
#	97807
#	112875
#	127345
#	144105
#	154792
#	172332
#	182515
#	197827
#	208830
#	226132
#	241412
#
# Disc length: 3347 seconds
#
# Revision: 2
# Processed by: cddbd v1.5PL3 Copyright (c) Steve Scherf et al.
# Submitted via: EasyCDDAExtractor 5.0.6
#
DISCID=f80d1112
DTITLE=鳳飛飛 - 鳳飛飛金曲精選
DYEAR=1987
DGENRE=POP
TTITLE0=三部情曲
TTITLE1=愛你在心口難開
TTITLE2=姑娘十八一朵花
TTITLE3=西湖春
TTITLE4=茉莉花
TTITLE5=紅花襟上插
TTITLE6=飄零的落花
TTITLE7=聞笛
TTITLE8=採檳榔
TTITLE9=白髮吟
TTITLE10=紫竹調
TTITLE11=幾度花落時
TTITLE12=媽媽好
TTITLE13=採蓮花
TTITLE14=雨的旋律
TTITLE15=早春
TTITLE16=吹過來的愛
TTITLE17=塵夢
EXTD=東尼唱片
EXTT0=
EXTT1=
EXTT2=
EXTT3=
EXTT4=
EXTT5=
EXTT6=
EXTT7=
EXTT8=
EXTT9=
EXTT10=
EXTT11=
EXTT12=
EXTT13=
EXTT14=
EXTT15=
EXTT16=
EXTT17=
PLAYORDER=
